<svg width="375" height="130" fill="none" xmlns="http://www.w3.org/2000/svg"><g clip-path="url(#clip0_1_2659)"><path fill="#fff" d="M0 .959h375v128.599H0z"/><mask id="mask0_1_2659" style="mask-type:alpha" maskUnits="userSpaceOnUse" x="0" y="0" width="375" height="130"><path fill="#CBCBCB" d="M0 .959h375v128.599H0z"/></mask><g clip-path="url(#clip1_1_2659)" mask="url(#mask0_1_2659)"><path d="M374.888-19.656H.113v149.158h374.775V-19.656Z" fill="#F4FAFB"/><path d="M280.011 15.27c2.239 0 4.055-1.825 4.055-4.076 0-2.25-1.816-4.075-4.055-4.075s-4.054 1.824-4.054 4.075c0 2.251 1.815 4.076 4.054 4.076Zm21.34-1.02c2.239 0 4.054-1.824 4.054-4.075 0-2.25-1.815-4.075-4.054-4.075-2.239 0-4.054 1.824-4.054 4.075 0 2.251 1.815 4.076 4.054 4.076Z" fill="#8BB956"/><path d="M287.669 15.043c3.639 0 6.588-2.965 6.588-6.622 0-3.658-2.949-6.623-6.588-6.623-3.638 0-6.588 2.965-6.588 6.623 0 3.657 2.95 6.623 6.588 6.623Z" fill="#8BB956"/><path d="M296.678 15.213c3.639 0 6.588-2.965 6.588-6.623 0-3.658-2.949-6.623-6.588-6.623-3.638 0-6.588 2.965-6.588 6.623 0 3.658 2.95 6.623 6.588 6.623Z" fill="#8BB956"/><path d="m300 12.61-9.403 9.453c0-2.264.901-4.472 2.534-6.057l3.772-3.793h-1.464l-7.826 7.868a2.435 2.435 0 0 1 0-3.453l3.997-4.018-1.013-1.02-2.083 2.095a1.592 1.592 0 0 1-2.253 0l-2.083-2.094-.845.849 1.295 1.302a2.778 2.778 0 0 1 0 3.905l-4.391-4.415-2.196-.566 1.407 1.189 4.73 4.755a7.135 7.135 0 0 1 2.083 5.038v26.775h3.998V26.308c0-1.471.563-2.83 1.577-3.906l9.684-9.793H300Z" fill="#8BB956"/><path d="m290.71 13.515.844-.849-1.013-1.019-1.239 1.246c.45.17.901.396 1.408.622Zm10.811-.905H300l-.901.905c.338.17.732.34 1.07.396l1.352-1.302Zm-20.496 1.528-.901-.906-2.196-.566 1.239 1.019c.619.17 1.239.34 1.858.453Zm3.04-2.548-.844.85 1.295 1.302.225.226c.45-.113.901-.226 1.295-.396l-1.971-1.981Zm10.361 2.604h.45l1.971-1.98h-1.464l-1.971 1.98h1.014Z" fill="#8BB956"/><path d="M305.8 1.741c.281-.736.394-1.585.394-2.434 0-4.132-3.322-7.529-7.489-7.529-.281 0-.619 0-.901.057-1.013-1.812-2.984-3.057-5.18-3.057-1.52 0-2.871.566-3.885 1.472-1.52-1.189-3.378-1.868-5.462-1.868-4.898 0-8.896 4.019-8.896 8.944 0 .453.056.905.113 1.358v.057c-.338-.057-.62-.113-.958-.113-2.364 0-4.279 1.924-4.279 4.302 0 2.094 1.52 3.849 3.491 4.245a4.292 4.292 0 0 0-1.013 2.774c0 2.377 1.914 4.302 4.279 4.302 1.182 0 2.252-.453 2.984-1.245 1.07.453 2.309.679 3.547.679a9.57 9.57 0 0 0 5.969-2.095 9.568 9.568 0 0 0 5.968 2.095c1.521 0 2.985-.34 4.28-1.019 1.013.623 2.196 1.019 3.491 1.019 3.547 0 6.475-2.887 6.475-6.51-.056-2.264-1.183-4.245-2.928-5.434Z" fill="#8BB956"/><path d="M272.579 9.666c0-1.076.394-2.095 1.013-2.83a4.496 4.496 0 0 1-3.603-4.416c0-1.188.45-2.264 1.182-3.056-1.182.792-1.97 2.094-1.97 3.622 0 2.095 1.52 3.85 3.491 4.246a4.288 4.288 0 0 0-1.014 2.773c0 2.378 1.914 4.303 4.279 4.303.338 0 .676-.057.958-.114a4.535 4.535 0 0 1-4.336-4.528Z" fill="#8BB956"/><path d="M45.833 30.724c2.706 0 4.899-2.205 4.899-4.925 0-2.72-2.193-4.925-4.899-4.925-2.705 0-4.898 2.205-4.898 4.925 0 2.72 2.193 4.925 4.898 4.925Z" fill="#E0ECD2"/><path d="M46.284 28.573h-.957v6.51h.957v-6.51Zm292.736-5.774c2.706 0 4.899-2.205 4.899-4.925 0-2.72-2.193-4.925-4.899-4.925-2.705 0-4.898 2.205-4.898 4.925 0 2.72 2.193 4.925 4.898 4.925Z" fill="#E0ECD2"/><path d="M339.471 20.648h-.957v6.51h.957v-6.51Zm10.81-1.698c2.706 0 4.899-2.206 4.899-4.925 0-2.72-2.193-4.925-4.899-4.925-2.705 0-4.898 2.205-4.898 4.925 0 2.72 2.193 4.924 4.898 4.924Z" fill="#E0ECD2"/><path d="M350.788 16.798h-.957v6.51h.957v-6.51ZM35.98 34.573c2.705 0 4.898-2.205 4.898-4.925 0-2.72-2.193-4.925-4.898-4.925-2.706 0-4.899 2.205-4.899 4.925 0 2.72 2.193 4.925 4.899 4.925Z" fill="#E0ECD2"/><path d="M36.486 32.422h-.957v6.51h.957v-6.51Zm84.741 7.528s27.027 7.246 44.989 7.246c45.327 0 57.038-16.472 93.356-16.472v32.152H118.468l2.759-22.925Zm-88.682 1.359-2.252-2.264c-2.703-2.718-7.32-.793-7.32 3.056l-2.984-3c-2.647-2.66-7.095-.792-7.095 2.944v3.622c-2.14-2.15-5.743-.622-5.743 2.378v3.113c-3.153 0-5.743 2.604-5.743 5.774v8.718s20.833.17 21.058 0c.113-.227 10.079-24.341 10.079-24.341ZM66.78 21.214c-2.816 0-3.098 18.963-3.098 18.963h6.138s-.226-18.963-3.04-18.963Z" fill="#E0ECD2"/><path d="M61.993 16.459c-2.815 0-3.097 18.963-3.097 18.963h6.138s-.226-18.963-3.04-18.963Z" fill="#E0ECD2"/><path d="M.113 89.141V59.65s26.013-28.925 66.722-28.925c62.557 0 55.913 26.831 156.138 26.831 81.926 0 130.124-21.85 130.124-21.85l.112 93.797H.113" fill="#8BB956"/><path d="m351.689 23.308 6.7-6.736c1.183-1.189 3.154-.34 3.154 1.302 0-4.02 4.786-6 7.601-3.17l.056.056c0-2.886 2.309-5.207 5.18-5.207h.451v13.812l-23.142-.057Z" fill="#E0ECD2"/><path d="m90.203 44.819 9.009 9.056a9.548 9.548 0 0 1 2.759 6.68v29.04h2.477V61.856c0-1.868.732-3.736 2.084-5.038l9.29-9.34h-1.745l-8.334 8.378v-.566c0-1.359.563-2.66 1.521-3.68l3.322-3.34h-1.915l-4.279 4.303-3.491-3.51h-1.126l1.633 1.642c1.351 1.358 2.139 3.283 2.139 5.207L91.554 43.856l-1.351.962Z" fill="#048848"/><path d="M121.284 36.101c1.52-.962 2.477-2.66 2.477-4.642 0-3.056-2.477-5.49-5.461-5.49-2.084 0-3.829 1.132-4.786 2.83-2.253-2.208-5.349-3.623-8.728-3.623-.676 0-1.351.057-2.027.17-1.408-1.415-3.378-2.32-5.518-2.32-4.28 0-7.77 3.509-7.77 7.81 0 .51.056 1.02.169 1.53h-.17c-4.278 0-7.77 3.509-7.77 7.81 0 4.303 3.492 7.813 7.77 7.813 2.197 0 4.224-.906 5.632-2.434 2.308 2.886 5.799 4.698 9.74 4.698 2.478 0 4.843-.736 6.757-2.038a7.669 7.669 0 0 0 4.617 1.528c4.28 0 7.771-3.51 7.771-7.811a8.138 8.138 0 0 0-2.703-5.83Z" fill="#048848"/><path d="M106.701 36.554c4.758 0 8.615-3.878 8.615-8.66 0-4.784-3.857-8.662-8.615-8.662s-8.615 3.878-8.615 8.661c0 4.783 3.857 8.661 8.615 8.661Zm14.02 33.851-6.87-6.906c-3.096-3.114-8.333-.906-8.333 3.453l-2.646-2.66c-3.04-3.058-7.151-4.756-11.487-4.756h-3.66l-2.984-3c-4.617-4.642-12.5-1.358-12.5 5.208v6.057l-2.478-2.49c-3.547-3.567-9.572-1.02-9.572 4.018v2.66h-3.153c-3.21 0-5.855 2.605-5.855 5.888v.17c-3.998 0-7.264 3.283-7.264 7.302v2.717l76.802-17.661Zm149.774-55.022c-4.392 0-4.786 29.492-4.786 29.492h9.572s-.394-29.492-4.786-29.492Z" fill="#048848"/><path d="M262.5 26.478c-4.392 0-4.786 29.492-4.786 29.492h9.572s-.394-29.492-4.786-29.492ZM126.802 42.724c-4.843 0-5.293 32.549-5.293 32.549h10.586c0 .056-.451-32.549-5.293-32.549Z" fill="#048848"/><path d="M133.896 52.97c-3.096 0-3.378 20.888-3.378 20.888h6.813c0 .056-.281-20.888-3.435-20.888Zm128.885-10.755 12.275-12.34a9.48 9.48 0 0 1 13.457 0c0-6.567 7.883-9.85 12.5-5.209l1.859 1.869 3.772-3.793c1.689-1.698 4.561-.51 4.561 1.924 3.829 0 6.926 3.114 6.926 6.963v2.49l-55.35 8.096Z" fill="#048848"/><path d="m.113 89.141 374.774-71.833v110.779H.113V89.142Z" fill="#03703C"/><path d="M374.887 92.707H.113v36.738h374.774V92.708Z" fill="#10462D"/><path d="M374.887 113.709h-80.799s-133.108 2.434-157.207-21.002h-22.185s-4.617 23.266 39.358 36.738h220.833v-15.736Z" fill="#8FA3AD"/><path d="M87.669 62.706a3.218 3.218 0 0 0 3.21-3.227 3.218 3.218 0 0 0-3.21-3.226 3.218 3.218 0 0 0-3.21 3.227 3.218 3.218 0 0 0 3.21 3.226Z" fill="#048848"/><path d="M375 53.989c-1.802-.85-4.167.453-4.167 2.717V58.8l-.563-.566c-2.252-2.264-6.081-.68-6.081 2.547h-.169c-3.153 0-5.743 2.604-5.743 5.774H375V53.99Z" fill="#03582F"/><path d="M131.721 92.264c9.638-3.94 15.617-7.753 19.103-11.306 3.789-3.86 4.658-7.444 4.023-10.527-.627-3.041-2.696-5.483-4.555-7.143a22.601 22.601 0 0 0-2.491-1.922l3.776-.743c8.238 3.571 12.525 7.334 14.398 10.905 1.868 3.56 1.379 7.018-.143 10.097-1.531 3.094-4.095 5.772-6.3 7.688a38.41 38.41 0 0 1-2.828 2.233 30.173 30.173 0 0 1-1.05.718h-23.933Z" fill="#CCDFE5" stroke="#CCDFE5"/><path d="M171.227 116.595h-5.912c-1.351 0-2.477 1.133-2.477 2.491a6.442 6.442 0 0 0 2.984 5.434c3.266 2.038 8.615 4.925 13.232 4.925h133.164v-17.378H182.883l-11.656 4.528Z" fill="#556268"/><path d="m231.644 112.124 21.453 11.717c1.182.623 2.477.962 3.772.962h5.743c2.084 0 4.111.849 5.631 2.321a7.943 7.943 0 0 0 5.631 2.321h38.344V112.18l-80.574-.056Z" fill="#394145"/><path d="m103.266 93.613-7.996-8.038c-1.914-1.924-5.236-.566-5.236 2.208 0-5.944-7.095-8.887-11.262-4.698l-5.123 5.15v-.848c0-1.981-2.421-3-3.83-1.585l-.506.51c-3.998 0-7.207 3.226-7.207 7.245v.453l41.16-.397Z" fill="#10462D"/><path d="M101.239 95.538c2.146 0 3.885-1.749 3.885-3.906s-1.739-3.906-3.885-3.906-3.885 1.749-3.885 3.906 1.74 3.906 3.885 3.906Z" fill="#10462D"/><path d="M358.615 69.216v-22.02l-.788.793c-1.915 1.924-2.703 4.698-2.14 7.358l2.928 13.869Zm0 0-5.8-17.775-.45.85c-1.013 2.037-.957 4.528.169 6.51l6.081 10.415Zm0 0-9.234-12.68-.113.793c-.281 1.924.394 3.849 1.858 5.15l7.489 6.737Z" fill="#03582F"/><path d="M16.047 72.669v14.888l-1.858-16.7-3.603-3.622c-.732 6.283-2.027 17.435-2.14 17.604-.112.114-.056-13.076 0-19.755L3.83 60.442v11.83L3.041 59.65 0 56.537v36.115h18.411V75.046l-2.364-2.377Zm84.797 49.7V93.444l1.07 1.075c2.534 2.547 3.604 6.17 2.816 9.68l-3.886 18.17Z" fill="#000"/><path d="m100.844 122.369 7.602-23.321.563 1.132c1.351 2.717 1.295 5.943-.225 8.547l-7.94 13.642Zm0 .001 12.163-16.699.169 1.075c.394 2.547-.507 5.095-2.422 6.793l-9.91 8.831Z" fill="#000"/><path d="m100.394 122.483 13.345-9.623-.113.849c-.338 1.981-1.633 3.736-3.491 4.528l-9.741 4.246Zm6.926 4.188 7.263-7.302c3.322-3.34 8.953-.962 8.953 3.736l5.068-5.094c1.632-1.642 4.448-.51 4.448 1.868 5.293 0 9.516 4.302 9.516 9.566v.057H106.25l1.07-2.831Zm-22.297-15.057V94.802l-2.816 15.227 2.816 1.585Zm-2.816-1.415V93.387l-2.872 15.227 2.872 1.585Z" fill="#000"/><path d="M140.484 127.804v-14.435l-2.421 13.133 2.421 1.302Z" fill="#000"/><path d="M142.568 129.219v-14.435l-2.422 13.076 2.422 1.359Zm-42.399-15.114v-5.83c0-5.095-6.081-7.642-9.685-4.02l-.675.68-1.24-1.246c-1.857-1.868-5.067-.566-5.067 2.095v1.924l-5.405-5.434c-2.478-2.49-6.475-2.49-8.896 0l-3.604 3.623 34.572 8.208Z" fill="#000"/><path d="M151.858 129.558v-.113c-46.791 0-68.243-36.85-106.081-42.511-24.155-3.623-38.288-.736-45.833 2.264v40.417h151.914v-.057Z" fill="#000"/><path d="M375 63.612c-4.167-.283-8.559-.227-13.119.453-20.552 3-34.404 28.926-60.136 28.926H375V63.61Z" fill="#03582F"/><path d="M182.883 120.615c2.985 0 5.405-8.212 5.405-18.341 0-10.13-2.42-18.34-5.405-18.34-2.986 0-5.406 8.21-5.406 18.34 0 10.129 2.42 18.341 5.406 18.341Z" fill="#000"/><path d="M182.883 83.934h-11.261v36.681h11.261V83.934Zm132.432 45.568c3.483 0 6.307-9.58 6.307-21.397 0-11.818-2.824-21.398-6.307-21.398-3.482 0-6.306 9.58-6.306 21.398 0 11.817 2.824 21.397 6.306 21.397Z" fill="#000"/><path d="M315.315 86.707h-13.119v42.795h13.119V86.707Z" fill="#000"/><path d="M302.196 129.502c3.483 0 6.306-9.58 6.306-21.397 0-11.818-2.823-21.398-6.306-21.398s-6.306 9.58-6.306 21.398c0 11.817 2.823 21.397 6.306 21.397Z" fill="#142328"/><path d="M301.746 124.86c2.581 0 4.673-7.502 4.673-16.755 0-9.254-2.092-16.756-4.673-16.756s-4.674 7.502-4.674 16.756c0 9.253 2.093 16.755 4.674 16.755Z" fill="#141414"/><path d="M218.356 129.502c3.483 0 6.306-9.58 6.306-21.397 0-11.818-2.823-21.398-6.306-21.398s-6.307 9.58-6.307 21.398c0 11.817 2.824 21.397 6.307 21.397Z" fill="#000"/><path d="M218.356 86.707h-13.119v42.795h13.119V86.707Z" fill="#000"/><path d="m308.446 59.48 8.615 2.773a3.358 3.358 0 0 1 2.196 2.321l.732 2.66 2.421 2.435c1.239 1.245 1.914 2.943 1.914 4.698v3.906c0 .623.113 1.189.338 1.755l4.223 10.472c.282.68.451 1.472.451 2.207v12.227a5.609 5.609 0 0 1-1.014 3.227l-3.66 5.434a5.794 5.794 0 0 1-4.786 2.548h-120.27l-22.917-5.095-8.277-4.076V87.896c0-2.377.732-4.698 2.027-6.68 1.408-2.094 3.266-3.736 5.462-4.924l7.094-3.85s7.433-15.623 16.949-25.02c4.448-4.358 10.416-6.792 16.666-6.85l55.969-.622a27.22 27.22 0 0 1 16.385 5.265l19.482 14.264Z" fill="#fff"/><path d="M239.696 101.246h81.7c2.091 0 3.78 1.702 3.78 3.745v2.613h-89.203v-2.613c0-2.052 1.641-3.745 3.723-3.745Zm-40.859 13.364h-.001l.002.008.211.876-22.14-4.922-1.516-.72.125-.251 20.088 2.17c1.607.204 2.886 1.307 3.231 2.839Z" fill="#CCDFE5" stroke="#CCDFE5"/><path d="M227.252 56.989c.563 1.358 1.915 2.208 3.379 2.208h77.533l-19.144-14.04h-.056c-2.083-1.528-4.561-2.264-7.095-2.264h-57.883a1.834 1.834 0 0 0-1.689 2.604l4.955 11.49Z" fill="#142328"/><path d="M227.252 56.989c.563 1.358 1.914 2.207 3.378 2.207l77.872.227-3.435-2.49-77.815.056Z" fill="#000"/><path d="M185.135 72.103s11.656-5.434 24.212-5.887a4.317 4.317 0 0 0 3.604-2.208l3.772-6.85c1.014-1.867 1.577-3.905 1.577-6a7.746 7.746 0 0 0-8.165-7.755c-2.59.17-5.011 1.132-6.982 2.887-4.11 3.736-11.543 11.718-18.018 25.813Z" fill="#142328"/><path d="M210.191 43.403c-.112 0-.281 0-.394.057-1.52 1.245-2.871 2.66-4.223 4.132-1.97 2.208-3.716 4.642-5.236 7.19l-1.07 1.98c-.169.34-.394.623-.507.963l-.507 1.018c-.337.68-.675 1.36-.957 2.038l-.844 2.095-.394 1.019-.338 1.075-.732 2.151c-.113.34-.226.736-.338 1.076l-.169.566a63.642 63.642 0 0 1 4.448-1.132l.394-1.585.225-1.02.282-1.018.619-2.038c.226-.68.451-1.302.732-1.981l.338-1.02c.113-.339.282-.622.394-.961l.845-1.925c1.239-2.547 2.646-4.981 4.336-7.302l.619-.85.676-.848c.45-.566.9-1.076 1.407-1.642.62-.68 1.295-1.359 1.971-1.981-.507-.114-1.014-.114-1.577-.057Z" fill="#000"/><path d="M325.676 108.105v-1.189c0-.849-.676-1.529-1.521-1.529h-17.06l-2.872 2.718h21.453Z" fill="#9A3F21"/><path d="M304.167 71.48h-46.96v2.264h46.96V71.48Z" fill="#A1BDCA"/><path d="M325.676 108.104h-47.917v8.095h42.117a5.792 5.792 0 0 0 4.786-2.547l2.534-3.736-1.52-1.812Z" fill="#000"/><path d="M282.32 116.199v-8.095h-46.847l-3.097 3.057v5.038h49.944Z" fill="#000"/><path d="M307.883 90.056h-55.406c-1.752 0-3.458-.533-4.958-1.5l-.477-.33h66.276l-.477.33a9 9 0 0 1-4.958 1.5Z" fill="#CCDFE5" stroke="#CCDFE5"/><mask id="path-84-inside-1_1_2659" fill="#fff"><path d="M231.363 92.707c-1.07 0-2.084 0-3.154-.056l-19.087-.396v-.397l19.087.397c1.352.056 2.703.056 4.111.056l97.016-1.188v.396l-97.016 1.188h-.957Z"/></mask><path d="M231.363 92.707c-1.07 0-2.084 0-3.154-.056l-19.087-.396v-.397l19.087.397c1.352.056 2.703.056 4.111.056l97.016-1.188v.396l-97.016 1.188h-.957Z" fill="#CCDFE5"/><path d="m228.209 92.65.053-.998h-.032l-.021.999Zm-19.087-.395h-1v.98l.979.02.021-1Zm0-.397.02-1-1.02-.02v1.02h1Zm19.087.397.042-1h-.021l-.021 1Zm4.111.056v1h.012l-.012-1Zm97.016-1.188h1V90.11l-1.013.013.013 1Zm0 .396.012 1 .988-.012v-.988h-1Zm-97.016 1.188v1h.012l-.012-1Zm-.957-1c-1.074 0-2.061 0-3.101-.055l-.105 1.998c1.1.058 2.139.057 3.206.057v-2Zm-3.133-.056-19.088-.396-.041 2 19.088.396.041-2Zm-18.108.604v-.397h-2v.397h2Zm-1.021.603 19.088.396.041-2-19.088-.395-.041 2Zm19.067.396c1.375.057 2.748.057 4.152.057v-2c-1.412 0-2.742 0-4.069-.055l-.083 1.998Zm4.164.057 97.016-1.189-.025-2-97.015 1.19.024 2Zm96.004-2.188v.396h2v-.396h-2Zm.987-.604-97.015 1.189.024 2 97.016-1.19-.025-2Zm-97.003 1.188h-.957v2h.957v-2Z" fill="#CCDFE5" mask="url(#path-84-inside-1_1_2659)"/><mask id="path-86-inside-2_1_2659" fill="#fff"><path d="M238.401 67.404h-.394v-2.377l-1.07-1.076a1.082 1.082 0 0 1-.282-1.075c.169-.396.507-.68.958-.68h79.504c.282.057.563.17.788.397h-80.349c-.281 0-.45.17-.507.34-.056.17-.056.452.113.622l1.183 1.189v2.66h.056Z"/></mask><path d="M238.401 67.404h-.394v-2.377l-1.07-1.076a1.082 1.082 0 0 1-.282-1.075c.169-.396.507-.68.958-.68h79.504c.282.057.563.17.788.397h-80.349c-.281 0-.45.17-.507.34-.056.17-.056.452.113.622l1.183 1.189v2.66h.056Z" fill="#CCDFE5"/><path d="M238.007 67.404h-1v1h1v-1Zm0-2.377h1v-.413l-.291-.292-.709.705Zm-1.07-1.076-.709.706.709-.706Zm-.282-1.075-.92-.392-.024.058-.018.06.962.274Zm80.462-.68.197-.98-.097-.02h-.1v1Zm.788.397v1h2.405l-1.696-1.705-.709.705Zm-80.743.962.709-.705-.709.705Zm1.183 1.189h1v-.413l-.291-.292-.709.705Zm0 2.66h-1v1h1v-1Zm.056-1h-.394v2h.394v-2Zm.606 1v-2.377h-2v2.377h2Zm-.291-3.082-1.07-1.076-1.418 1.41 1.07 1.076 1.418-1.41Zm-1.07-1.076a.115.115 0 0 1-.032-.049.092.092 0 0 1 .003-.048l-1.924-.547a2.082 2.082 0 0 0 .535 2.055l1.418-1.41Zm-.071.022a.194.194 0 0 1 .05-.078l-.003.002a.045.045 0 0 1-.008.003c-.006.002-.008.002-.001.002v-2c-.936 0-1.587.606-1.878 1.287l1.84.784Zm.038-.072h79.448v-2h-79.448v2Zm79.448 0h.056v-2h-.056v2Zm-.141-.02c.159.033.235.08.276.122l1.418-1.41a2.492 2.492 0 0 0-1.3-.672l-.394 1.96Zm.985-1.583h-80.349v2h80.349v-2Zm-80.349 0a1.51 1.51 0 0 0-1.456 1.025l1.899.63a.512.512 0 0 1-.179.25.452.452 0 0 1-.264.095v-2Zm-1.456 1.025a1.736 1.736 0 0 0-.071.75c.033.263.14.607.424.892l1.418-1.41a.48.48 0 0 1 .143.27.277.277 0 0 1-.015.127l-1.899-.63Zm.353 1.642 1.183 1.189 1.418-1.41-1.183-1.19-1.418 1.411Zm.892.484v2.66h2v-2.66h-2Zm1 3.66h.056v-2h-.056v2Z" fill="#CCDFE5" mask="url(#path-86-inside-2_1_2659)"/><mask id="path-88-inside-3_1_2659" fill="#fff"><path d="M319.426 65.14h-81.25v-.396h81.137l.113.396Z"/></mask><path d="M319.426 65.14h-81.25v-.396h81.137l.113.396Z" fill="#CCDFE5"/><path d="M319.426 65.14v1h1.324l-.362-1.273-.962.273Zm-81.25 0h-1v1h1v-1Zm0-.396v-1h-1v1h1Zm81.137 0 .962-.273-.207-.727h-.755v1Zm.113-.604h-81.25v2h81.25v-2Zm-80.25 1v-.396h-2v.396h2Zm-1 .604h81.137v-2h-81.137v2Zm80.175-.727.113.397 1.924-.547-.113-.397-1.924.547Z" fill="#CCDFE5" mask="url(#path-88-inside-3_1_2659)"/><path d="M318.806 67.688v-2.774" stroke="#CCDFE5" stroke-miterlimit="10"/><path d="M324.662 79.971a4.638 4.638 0 0 1-.338-1.755v-3.905c0-1.755-.675-3.454-1.914-4.699l-2.421-2.434-.169-.68h-.957l-4.955 4.982h-9.685v4.415c0 .736.113 1.472.45 2.151a4.972 4.972 0 0 0 4.561 2.944h14.865c.394 0 .788-.51.563-1.019Z" fill="#FF6937"/><mask id="path-92-inside-4_1_2659" fill="#fff"><path d="m172.523 83.48-.113-.395 22.691-8.039c7.208-2.49 14.753-3.736 22.41-3.736h6.532v.397h-6.532a68.039 68.039 0 0 0-22.297 3.736l-22.691 8.038Z"/></mask><path d="m172.523 83.48-.113-.395 22.691-8.039c7.208-2.49 14.753-3.736 22.41-3.736h6.532v.397h-6.532a68.039 68.039 0 0 0-22.297 3.736l-22.691 8.038Z" fill="#CCDFE5"/><path d="m172.523 83.48-.962.274.291 1.025 1.004-.356-.333-.942Zm-.113-.395-.334-.943-.885.313.257.903.962-.273Zm22.691-8.039-.326-.945-.008.003.334.942Zm28.942-3.736h1v-1h-1v1Zm0 .397v1h1v-1h-1Zm-28.829 3.736-.327-.946-.007.003.334.943Zm-21.73 7.764-.112-.396-1.924.547.113.396 1.923-.547Zm-.74.82 22.691-8.038-.668-1.885-22.691 8.038.668 1.885Zm22.684-8.035c7.1-2.454 14.535-3.682 22.083-3.682v-2c-7.766 0-15.422 1.263-22.736 3.791l.653 1.89Zm22.083-3.682h6.532v-2h-6.532v2Zm5.532-1v.397h2v-.397h-2Zm1-.603h-6.532v2h6.532v-2Zm-6.532 0a69.042 69.042 0 0 0-22.624 3.79l.654 1.89a67.035 67.035 0 0 1 21.97-3.68v-2ZM194.88 74.5l-22.691 8.038.667 1.885 22.692-8.038-.668-1.885Z" fill="#CCDFE5" mask="url(#path-92-inside-4_1_2659)"/><path d="m238.401 66.499 4.955 4.981h13.851v4.472c0 1.302-.507 2.604-1.464 3.51a4.89 4.89 0 0 1-3.491 1.471h-23.93c-1.07 0-2.083-.396-2.815-1.188l-2.534-2.548a2.92 2.92 0 0 1-.845-2.038v-2.943c0-.736.282-1.472.845-2.038a13.04 13.04 0 0 1 9.291-3.85l6.137.17Z" fill="#FF6937"/><path d="M227.365 77.254a2.92 2.92 0 0 1-.845-2.038v-2.944c0-.735.282-1.471.845-2.037 2.252-2.265 3.998-3.623 7.151-3.793l-2.252-.057a12.72 12.72 0 0 0-9.291 3.85 2.92 2.92 0 0 0-.845 2.037v2.944c0 .736.282 1.472.845 2.038l2.534 2.547a3.997 3.997 0 0 0 2.815 1.189h4.392c-1.07 0-2.083-.396-2.815-1.189l-2.534-2.547Z" fill="#C14F29"/><mask id="path-96-inside-5_1_2659" fill="#fff"><path d="m172.945 106.716-.011.849 31.078.383.011-.849-31.078-.383Z"/></mask><path d="m172.945 106.716-.011.849 31.078.383.011-.849-31.078-.383Z" fill="#CCDFE5"/><path d="m172.934 107.565-1-.012-.012 1 1 .012.012-1Zm.011-.849.012-1-1-.012-.012 1 1 .012Zm31.078.383.999.013.013-1-1-.013-.012 1Zm-.011.849-.012 1 1 .012.012-.999-1-.013Zm-30.078-.37.01-.849-1.999-.025-.011.849 2 .025Zm-1.002.138 31.078.383.025-2-31.078-.383-.025 2Zm30.091-.629-.011.849 2 .025.01-.849-1.999-.025Zm1.001-.139-31.078-.383-.024 2 31.078.383.024-2Z" fill="#CCDFE5" mask="url(#path-96-inside-5_1_2659)"/><path d="M205.687 128.03c3.763 0 6.813-9.58 6.813-21.397 0-11.818-3.05-21.398-6.813-21.398s-6.813 9.58-6.813 21.398c0 11.817 3.05 21.397 6.813 21.397Z" fill="#000"/><path d="M205.237 129.502c3.482 0 6.306-9.58 6.306-21.397 0-11.818-2.824-21.398-6.306-21.398-3.483 0-6.307 9.58-6.307 21.398 0 11.817 2.824 21.397 6.307 21.397Z" fill="#142328"/><path d="M204.786 124.86c2.581 0 4.673-7.502 4.673-16.756 0-9.253-2.092-16.755-4.673-16.755s-4.673 7.502-4.673 16.755c0 9.254 2.092 16.756 4.673 16.756Z" fill="#6C7C83"/><path d="M204.786 122.03c1.804 0 3.266-6.235 3.266-13.926 0-7.69-1.462-13.925-3.266-13.925s-3.266 6.235-3.266 13.925c0 7.691 1.462 13.926 3.266 13.926Z" fill="#556268"/><path d="M172.41 118.973c3.234 0 5.856-8.211 5.856-18.341 0-10.129-2.622-18.34-5.856-18.34s-5.856 8.211-5.856 18.34c0 10.13 2.622 18.341 5.856 18.341Z" fill="#000"/><path d="M171.622 120.615c2.985 0 5.405-8.212 5.405-18.341 0-10.13-2.42-18.34-5.405-18.34-2.986 0-5.406 8.21-5.406 18.34 0 10.129 2.42 18.341 5.406 18.341Z" fill="#142328"/><path d="M171.227 116.652c2.208 0 3.998-6.437 3.998-14.378 0-7.94-1.79-14.378-3.998-14.378-2.207 0-3.997 6.437-3.997 14.378s1.79 14.378 3.997 14.378Z" fill="#6C7C83"/><path d="M290.484 80.99h-18.13a2.71 2.71 0 0 1-2.703-2.717v-4.529h23.48v4.529c0 1.528-1.183 2.717-2.647 2.717Z" fill="#FFC043"/><path d="M293.131 71.48h-23.48v2.264h23.48V71.48Z" fill="#556268"/><path d="M185.811 70.235h-10.98c-1.295 0-2.59-.51-3.491-1.472a2.492 2.492 0 0 1-.732-1.755c0-.679.282-1.302.732-1.754l2.196-2.208c.619-.623 1.408-.962 2.252-.962h5.462c1.52 0 2.703 1.245 2.703 2.717v3.17h2.871l-1.013 2.264Z" fill="#fff"/><path d="M182.32 70.235h-4.843c-1.295 0-2.59-.51-3.491-1.472a2.491 2.491 0 0 1-.731-1.755c0-.679.281-1.302.731-1.754l2.196-2.208c.62-.623 1.408-.962 2.253-.962h3.603c1.521 0 2.703 1.245 2.703 2.717v3.17c-.113 1.301-1.126 2.264-2.421 2.264Z" fill="#142328"/><path d="M177.534 69.669c-1.183 0-2.252-.453-3.097-1.302a1.981 1.981 0 0 1-.563-1.359c0-.51.225-.962.563-1.358l2.196-2.208c.507-.51 1.126-.793 1.858-.793h3.604c1.182 0 2.139.963 2.139 2.151v3.114c-.112.962-.901 1.698-1.858 1.698h-4.842v.057Z" fill="#556268"/><path d="M254.448 52.913h-16.892c-.844 0-1.52.68-1.576 1.472l-.225 3.057c-.057.905.675 1.698 1.576 1.698h19.144c1.295 0 2.027-1.415 1.295-2.49l-2.027-3.058c-.225-.396-.732-.679-1.295-.679Zm35.53 0h-13.739c-.563 0-1.014.453-1.07.962l-.282 4.133c-.056.622.451 1.132 1.07 1.132h19.539c1.013 0 1.464-1.302.619-1.925l-5.518-4.132c-.169-.057-.394-.17-.619-.17Z" fill="#000"/><path d="M182.264 62.706c-1.183 1.132-2.365 2.887-4.336 6.963h4.392c.957 0 1.745-.736 1.858-1.698v-3.114c.056-1.132-.788-2.038-1.914-2.15Z" fill="#6C7C83"/><mask id="path-113-inside-6_1_2659" fill="#fff"><path d="M250.788 88.292h-7.826a4.207 4.207 0 0 1-2.984-1.245l-.958-.962a4.253 4.253 0 0 1-1.238-3v-3.34h.563v3.34a3.74 3.74 0 0 0 1.07 2.603l.957.963a3.702 3.702 0 0 0 2.59 1.075h7.826v.566Z"/></mask><path d="M250.788 88.292h-7.826a4.207 4.207 0 0 1-2.984-1.245l-.958-.962a4.253 4.253 0 0 1-1.238-3v-3.34h.563v3.34a3.74 3.74 0 0 0 1.07 2.603l.957.963a3.702 3.702 0 0 0 2.59 1.075h7.826v.566Z" fill="#CCDFE5"/><path d="M250.788 88.292v1h1v-1h-1Zm-10.81-1.245.709-.705-.709.705Zm-.958-.962-.709.705.709-.705Zm-1.238-6.34v-1h-1v1h1Zm.563 0h1v-1h-1v1Zm1.07 5.943.708-.705-.708.705Zm.957.963-.709.705.709-.705Zm10.416 1.075h1v-1h-1v1Zm0-.434h-7.826v2h7.826v-2Zm-7.826 0a3.206 3.206 0 0 1-2.275-.95l-1.418 1.41a5.207 5.207 0 0 0 3.693 1.54v-2Zm-2.275-.95-.958-.963-1.418 1.41.958.963 1.418-1.41Zm-.958-.963a3.254 3.254 0 0 1-.947-2.295h-2c0 1.399.556 2.727 1.529 3.706l1.418-1.41Zm-.947-2.295v-3.34h-2v3.34h2Zm-1-2.34h.563v-2h-.563v2Zm-.437-1v3.34h2v-3.34h-2Zm0 3.34c0 1.224.497 2.441 1.361 3.31l1.417-1.41a2.745 2.745 0 0 1-.778-1.9h-2Zm1.361 3.31.957.962 1.418-1.41-.958-.963-1.417 1.41Zm.957.962a4.703 4.703 0 0 0 3.299 1.37v-2c-.692 0-1.394-.29-1.881-.78l-1.418 1.41Zm3.299 1.37h7.826v-2h-7.826v2Zm6.826-1v.566h2v-.566h-2Z" fill="#CCDFE5" mask="url(#path-113-inside-6_1_2659)"/><mask id="path-115-inside-7_1_2659" fill="#fff"><path d="M306.081 88.292h7.827a4.208 4.208 0 0 0 2.984-1.245l.957-.962a4.254 4.254 0 0 0 1.239-3v-3.34h-.563v3.34c0 .962-.395 1.924-1.07 2.603l-.957.963a3.704 3.704 0 0 1-2.59 1.075h-7.827v.566Z"/></mask><path d="M306.081 88.292h7.827a4.208 4.208 0 0 0 2.984-1.245l.957-.962a4.254 4.254 0 0 0 1.239-3v-3.34h-.563v3.34c0 .962-.395 1.924-1.07 2.603l-.957.963a3.704 3.704 0 0 1-2.59 1.075h-7.827v.566Z" fill="#CCDFE5"/><path d="M306.081 88.292h-1v1h1v-1Zm10.811-1.245-.709-.705.709.705Zm.957-.962.709.705-.709-.705Zm1.239-6.34h1v-1h-1v1Zm-.563 0v-1h-1v1h1Zm-1.07 5.943.709.706-.709-.706Zm-.957.963-.709-.706.709.706Zm-10.417 1.075v-1h-1v1h1Zm0 1.566h7.827v-2h-7.827v2Zm7.827 0a5.209 5.209 0 0 0 3.693-1.54l-1.418-1.41a3.208 3.208 0 0 1-2.275.95v2Zm3.693-1.54.957-.962-1.418-1.41-.957.962 1.418 1.41Zm.957-.962a5.253 5.253 0 0 0 1.53-3.706h-2c0 .866-.345 1.689-.948 2.295l1.418 1.41Zm1.53-3.706v-3.34h-2v3.34h2Zm-1-4.34h-.563v2h.563v-2Zm-1.563 1v3.34h2v-3.34h-2Zm0 3.34c0 .701-.292 1.41-.779 1.9l1.418 1.41a4.743 4.743 0 0 0 1.361-3.31h-2Zm-.779 1.9-.957.961 1.418 1.41.957-.962-1.418-1.41Zm-.957.961a2.705 2.705 0 0 1-1.881.781v2a4.705 4.705 0 0 0 3.299-1.37l-1.418-1.41Zm-1.881.781h-7.827v2h7.827v-2Zm-8.827 1v.566h2v-.566h-2Z" fill="#CCDFE5" mask="url(#path-115-inside-7_1_2659)"/><path d="M238.401 66.499h-1.239V80.99h1.239V66.499Zm81.081 0h-.957V80.99h.957V66.499Z" fill="#C14F29"/><path d="m308.052 59.197-19.088-13.982h-.056c-2.084-1.529-4.561-2.265-7.095-2.265h-54.617s44.538 2.151 58.559 16.246h22.297Z" fill="#6C7C83"/><path d="m296.171 57.272-5.518-4.133c-.169-.113-.394-.226-.619-.226h-13.739c3.829 1.755 7.095 3.85 9.516 6.227h9.741c1.013.056 1.407-1.245.619-1.868Z" fill="#142328"/><path d="m285.867 59.366 22.579.057-1.295-.962-2.14-1.529h-21.847c.958.736 1.915 1.698 2.703 2.434Z" fill="#142328"/><path d="M235.473 108.105v-1.189c0-.849.676-1.529 1.52-1.529h20.383l3.378 2.718h-25.281Z" fill="#9A3F21"/><path d="M231.876 111.695v4.004h-19.183l.167-2.766 19.016-1.238Z" fill="#CCDFE5" stroke="#CCDFE5"/><path d="M171.228 114.388c1.648 0 2.984-5.424 2.984-12.114s-1.336-12.114-2.984-12.114-2.985 5.424-2.985 12.114 1.337 12.114 2.985 12.114Z" fill="#556268"/><path d="M108.277 94.01V83.934l-1.915 9.793 1.915.282Z" fill="#10462D"/><path d="M106.419 93.67v-7.416l-1.464 7.19 1.464.226Z" fill="#10462D"/></g></g><defs><clipPath id="clip0_1_2659"><path fill="#fff" transform="translate(0 .959)" d="M0 0h375v128.599H0z"/></clipPath><clipPath id="clip1_1_2659"><path fill="#fff" transform="translate(0 -19.656)" d="M0 0h375v149.215H0z"/></clipPath></defs></svg>